<mxfile host="Electron" modified="2024-12-20T06:04:37.243Z" agent="Mozilla/5.0 (Windows NT 10.0; Win64; x64) AppleWebKit/537.36 (KHTML, like Gecko) draw.io/22.1.21 Chrome/120.0.6099.109 Electron/28.1.0 Safari/537.36" etag="JyjDcDz6z-QLjfNid-ui" version="22.1.21" type="device">
  <diagram name="Page-1" id="QhAGSmfaxEOebzCc9PE7">
    <mxGraphModel dx="742" dy="606" grid="1" gridSize="10" guides="1" tooltips="1" connect="1" arrows="1" fold="1" page="1" pageScale="1" pageWidth="850" pageHeight="1100" math="0" shadow="0">
      <root>
        <mxCell id="0" />
        <mxCell id="1" parent="0" />
        <mxCell id="pP83uIEeEP2As9i16IkL-1" value="" style="edgeStyle=orthogonalEdgeStyle;rounded=0;orthogonalLoop=1;jettySize=auto;html=1;" edge="1" parent="1" source="pP83uIEeEP2As9i16IkL-2" target="pP83uIEeEP2As9i16IkL-12">
          <mxGeometry relative="1" as="geometry" />
        </mxCell>
        <mxCell id="pP83uIEeEP2As9i16IkL-2" value="Xem danh sách Footer" style="rounded=1;whiteSpace=wrap;html=1;fontSize=12;glass=0;strokeWidth=1;shadow=0;" vertex="1" parent="1">
          <mxGeometry x="160" y="80" width="120" height="40" as="geometry" />
        </mxCell>
        <mxCell id="pP83uIEeEP2As9i16IkL-3" style="edgeStyle=orthogonalEdgeStyle;rounded=0;orthogonalLoop=1;jettySize=auto;html=1;entryX=0.25;entryY=0;entryDx=0;entryDy=0;exitX=0;exitY=0.5;exitDx=0;exitDy=0;" edge="1" parent="1" source="pP83uIEeEP2As9i16IkL-7" target="pP83uIEeEP2As9i16IkL-18">
          <mxGeometry relative="1" as="geometry" />
        </mxCell>
        <mxCell id="pP83uIEeEP2As9i16IkL-4" value="Thành công" style="edgeLabel;html=1;align=center;verticalAlign=middle;resizable=0;points=[];" vertex="1" connectable="0" parent="pP83uIEeEP2As9i16IkL-3">
          <mxGeometry x="-0.2827" y="2" relative="1" as="geometry">
            <mxPoint as="offset" />
          </mxGeometry>
        </mxCell>
        <mxCell id="pP83uIEeEP2As9i16IkL-5" style="edgeStyle=orthogonalEdgeStyle;rounded=0;orthogonalLoop=1;jettySize=auto;html=1;exitX=1;exitY=0.5;exitDx=0;exitDy=0;" edge="1" parent="1" source="pP83uIEeEP2As9i16IkL-7" target="pP83uIEeEP2As9i16IkL-21">
          <mxGeometry relative="1" as="geometry" />
        </mxCell>
        <mxCell id="pP83uIEeEP2As9i16IkL-6" value="Không thành công" style="edgeLabel;html=1;align=center;verticalAlign=middle;resizable=0;points=[];" vertex="1" connectable="0" parent="pP83uIEeEP2As9i16IkL-5">
          <mxGeometry x="-0.4907" y="-1" relative="1" as="geometry">
            <mxPoint x="12" y="-1" as="offset" />
          </mxGeometry>
        </mxCell>
        <mxCell id="pP83uIEeEP2As9i16IkL-7" value="" style="rhombus;whiteSpace=wrap;html=1;shadow=0;fontFamily=Helvetica;fontSize=12;align=center;strokeWidth=1;spacing=6;spacingTop=-4;" vertex="1" parent="1">
          <mxGeometry x="170" y="440" width="100" height="80" as="geometry" />
        </mxCell>
        <mxCell id="pP83uIEeEP2As9i16IkL-8" value="" style="edgeStyle=orthogonalEdgeStyle;rounded=0;orthogonalLoop=1;jettySize=auto;html=1;" edge="1" parent="1" source="pP83uIEeEP2As9i16IkL-9" target="pP83uIEeEP2As9i16IkL-2">
          <mxGeometry relative="1" as="geometry" />
        </mxCell>
        <mxCell id="pP83uIEeEP2As9i16IkL-9" value="" style="strokeWidth=2;html=1;shape=mxgraph.flowchart.start_2;whiteSpace=wrap;" vertex="1" parent="1">
          <mxGeometry x="220" y="10" width="40" height="40" as="geometry" />
        </mxCell>
        <mxCell id="pP83uIEeEP2As9i16IkL-10" value="" style="strokeWidth=2;html=1;shape=mxgraph.flowchart.start_2;whiteSpace=wrap;" vertex="1" parent="1">
          <mxGeometry x="260" y="640" width="40" height="40" as="geometry" />
        </mxCell>
        <mxCell id="pP83uIEeEP2As9i16IkL-11" value="" style="edgeStyle=orthogonalEdgeStyle;rounded=0;orthogonalLoop=1;jettySize=auto;html=1;" edge="1" parent="1" source="pP83uIEeEP2As9i16IkL-12" target="pP83uIEeEP2As9i16IkL-14">
          <mxGeometry relative="1" as="geometry" />
        </mxCell>
        <mxCell id="pP83uIEeEP2As9i16IkL-12" value="Thêm mới / cập nhật Footer" style="rounded=1;whiteSpace=wrap;html=1;fontSize=12;glass=0;strokeWidth=1;shadow=0;" vertex="1" parent="1">
          <mxGeometry x="160" y="190" width="120" height="40" as="geometry" />
        </mxCell>
        <mxCell id="pP83uIEeEP2As9i16IkL-13" value="" style="edgeStyle=orthogonalEdgeStyle;rounded=0;orthogonalLoop=1;jettySize=auto;html=1;" edge="1" parent="1" source="pP83uIEeEP2As9i16IkL-14" target="pP83uIEeEP2As9i16IkL-16">
          <mxGeometry relative="1" as="geometry" />
        </mxCell>
        <mxCell id="pP83uIEeEP2As9i16IkL-14" value="Nhập dữ liệu" style="rounded=1;whiteSpace=wrap;html=1;fontSize=12;glass=0;strokeWidth=1;shadow=0;" vertex="1" parent="1">
          <mxGeometry x="160" y="280" width="120" height="40" as="geometry" />
        </mxCell>
        <mxCell id="pP83uIEeEP2As9i16IkL-15" style="edgeStyle=orthogonalEdgeStyle;rounded=0;orthogonalLoop=1;jettySize=auto;html=1;" edge="1" parent="1" source="pP83uIEeEP2As9i16IkL-16" target="pP83uIEeEP2As9i16IkL-7">
          <mxGeometry relative="1" as="geometry" />
        </mxCell>
        <mxCell id="pP83uIEeEP2As9i16IkL-16" value="Lưu" style="rounded=1;whiteSpace=wrap;html=1;fontSize=12;glass=0;strokeWidth=1;shadow=0;" vertex="1" parent="1">
          <mxGeometry x="160" y="350" width="120" height="40" as="geometry" />
        </mxCell>
        <mxCell id="pP83uIEeEP2As9i16IkL-17" value="" style="edgeStyle=orthogonalEdgeStyle;rounded=0;orthogonalLoop=1;jettySize=auto;html=1;" edge="1" parent="1" source="pP83uIEeEP2As9i16IkL-18" target="pP83uIEeEP2As9i16IkL-19">
          <mxGeometry relative="1" as="geometry" />
        </mxCell>
        <mxCell id="pP83uIEeEP2As9i16IkL-18" value="Thông báo thành công" style="rounded=1;whiteSpace=wrap;html=1;fontSize=12;glass=0;strokeWidth=1;shadow=0;" vertex="1" parent="1">
          <mxGeometry x="50" y="540" width="120" height="40" as="geometry" />
        </mxCell>
        <mxCell id="pP83uIEeEP2As9i16IkL-19" value="Lấy dữ liệu Footer mới" style="rounded=1;whiteSpace=wrap;html=1;fontSize=12;glass=0;strokeWidth=1;shadow=0;" vertex="1" parent="1">
          <mxGeometry x="50" y="620" width="120" height="40" as="geometry" />
        </mxCell>
        <mxCell id="pP83uIEeEP2As9i16IkL-20" style="edgeStyle=orthogonalEdgeStyle;rounded=0;orthogonalLoop=1;jettySize=auto;html=1;entryX=0;entryY=0.5;entryDx=0;entryDy=0;entryPerimeter=0;" edge="1" parent="1" source="pP83uIEeEP2As9i16IkL-19" target="pP83uIEeEP2As9i16IkL-10">
          <mxGeometry relative="1" as="geometry" />
        </mxCell>
        <mxCell id="pP83uIEeEP2As9i16IkL-21" value="Thông báo lỗi" style="rounded=1;whiteSpace=wrap;html=1;fontSize=12;glass=0;strokeWidth=1;shadow=0;" vertex="1" parent="1">
          <mxGeometry x="340" y="545" width="120" height="40" as="geometry" />
        </mxCell>
        <mxCell id="pP83uIEeEP2As9i16IkL-22" style="edgeStyle=orthogonalEdgeStyle;rounded=0;orthogonalLoop=1;jettySize=auto;html=1;entryX=1;entryY=0.5;entryDx=0;entryDy=0;entryPerimeter=0;" edge="1" parent="1" source="pP83uIEeEP2As9i16IkL-21" target="pP83uIEeEP2As9i16IkL-10">
          <mxGeometry relative="1" as="geometry" />
        </mxCell>
      </root>
    </mxGraphModel>
  </diagram>
</mxfile>
